<svg width="120" height="120" viewBox="0 0 120 120" fill="none" xmlns="http://www.w3.org/2000/svg">
<circle cx="60" cy="60" r="60" fill="#F7A01F"/>
<path fill-rule="evenodd" clip-rule="evenodd" d="M59.2203 18L106.459 52.4723C107.549 53.2675 107.793 54.8034 107.005 55.9027C106.216 57.002 104.694 57.2485 103.604 56.4533L59.2725 24.1024L15.8967 56.9195C14.8207 57.7336 13.2942 57.5136 12.4872 56.4282C11.6802 55.3427 11.8983 53.8028 12.9743 52.9887L59.2203 18Z" fill="white"/>
<path fill-rule="evenodd" clip-rule="evenodd" d="M95.777 19.5773V47.584L84.0872 39.2311V19.5773H95.777Z" fill="white"/>
<path fill-rule="evenodd" clip-rule="evenodd" d="M23.2029 101.141V57.9023L59.7335 30.3868L94.8028 57.9023V101.141H81.6518V69.6946H61.6818V101.141H23.2029ZM50.4791 69.2031H32.9444V86.8916H50.4791V69.2031Z" fill="white"/>
</svg>
